<svg width="210" height="54" viewBox="0 0 210 54" fill="none" xmlns="http://www.w3.org/2000/svg">
<path d="M184.627 41.5892C180.899 38.4082 177.833 34.5259 175.604 30.163C174.611 28.2006 173.816 26.1445 173.23 24.0249C172.644 26.1445 171.849 28.2006 170.856 30.163C168.627 34.5259 165.561 38.4082 161.833 41.5892C164.37 46.549 168.145 50.7702 172.794 53.8438C172.929 53.9331 173.087 53.9807 173.249 53.9807C173.411 53.9807 173.569 53.9331 173.704 53.8438C178.353 50.7739 182.131 46.5565 184.67 41.5999L184.627 41.5892Z" fill="#3E984C"/>
<path d="M168.864 29.1572C170.982 25.0051 172.089 20.4118 172.094 15.7513C172.114 15.4687 172.24 15.204 172.447 15.0107C172.655 14.8174 172.928 14.7099 173.211 14.7099C173.495 14.7099 173.768 14.8174 173.975 15.0107C174.182 15.204 174.309 15.4687 174.328 15.7513C174.333 20.4118 175.44 25.0051 177.559 29.1572C179.56 33.0744 182.281 36.5802 185.58 39.4913C188.495 32.5734 188.901 24.8558 186.729 17.6705C184.557 10.4853 179.942 4.2831 173.682 0.134474C173.547 0.0451782 173.389 -0.00244141 173.227 -0.00244141C173.066 -0.00244141 172.907 0.0451782 172.772 0.134474C166.504 4.27702 161.88 10.4773 159.7 17.6643C157.519 24.8512 157.92 32.5734 160.831 39.4967C164.135 36.5849 166.86 33.0772 168.864 29.1572Z" fill="#3E984C"/>
<path d="M145.504 30.3297C147.341 26.7421 148.304 22.7718 148.314 18.7421C148.314 18.4832 148.403 18.2321 148.567 18.032L148.605 17.989L148.681 17.9137L148.761 17.8437C148.915 17.732 149.094 17.661 149.282 17.6375C149.471 17.6139 149.662 17.6386 149.838 17.7093H149.886C150.076 17.8003 150.237 17.943 150.349 18.1209C150.461 18.2988 150.521 18.5048 150.522 18.7152C150.533 22.745 151.495 26.7152 153.332 30.3028C154.559 32.7148 156.109 34.9482 157.94 36.9412C157.8 36.4821 157.669 36.0195 157.547 35.5532C155.664 28.3354 156.207 20.6992 159.093 13.8198C156.894 9.69396 153.7 6.18098 149.8 3.59867C149.683 3.52095 149.545 3.47949 149.405 3.47949C149.264 3.47949 149.126 3.52095 149.009 3.59867C143.404 7.30194 139.318 12.8938 137.494 19.3554C135.67 25.8171 136.229 32.7186 139.071 38.8025C141.7 36.3805 143.878 33.5118 145.504 30.3297Z" fill="#3E984C"/>
<path d="M151.362 31.3304C150.572 29.7689 149.925 28.1394 149.429 26.4619C148.941 28.1385 148.303 29.7679 147.523 31.3304C145.679 34.9475 143.173 38.1879 140.137 40.8845C142.323 44.691 145.371 47.9335 149.036 50.3525C149.153 50.4303 149.291 50.4717 149.432 50.4717C149.572 50.4717 149.71 50.4303 149.827 50.3525C153.492 47.9336 156.54 44.6911 158.726 40.8845C155.697 38.186 153.2 34.9457 151.362 31.3304Z" fill="#3E984C"/>
<path d="M189.973 27.0002C189.982 29.9033 189.62 32.7958 188.897 35.6075C188.775 36.0737 188.644 36.5363 188.504 36.9954C190.335 35.0024 191.885 32.769 193.112 30.357C194.949 26.7694 195.911 22.7992 195.922 18.7694C195.942 18.4868 196.068 18.2221 196.276 18.0288C196.483 17.8355 196.756 17.728 197.039 17.728C197.323 17.728 197.596 17.8355 197.803 18.0288C198.011 18.2221 198.137 18.4868 198.157 18.7694C198.167 22.7992 199.13 26.7694 200.967 30.357C202.591 33.5406 204.767 36.4112 207.395 38.8352C210.228 32.7488 210.78 25.848 208.949 19.3896C207.118 12.9311 203.026 7.34459 197.419 3.6475C197.302 3.56977 197.164 3.52832 197.023 3.52832C196.883 3.52832 196.745 3.56977 196.628 3.6475C192.728 6.22981 189.534 9.74279 187.335 13.8687C189.083 18.0317 189.98 22.5018 189.973 27.0163V27.0002Z" fill="#3E984C"/>
<path d="M198.959 31.3309C198.169 29.7694 197.523 28.1399 197.026 26.4624C196.529 28.1399 195.883 29.7694 195.093 31.3309C193.255 34.9462 190.757 38.1865 187.728 40.885C189.915 44.6916 192.963 47.9341 196.628 50.353C196.745 50.4307 196.883 50.4722 197.023 50.4722C197.164 50.4722 197.302 50.4307 197.419 50.353C201.086 47.9346 204.136 44.6921 206.324 40.885C203.295 38.1865 200.797 34.9462 198.959 31.3309Z" fill="#3E984C"/>
<path d="M32.7483 11.4907C35.234 11.4907 37.249 9.4772 37.249 6.9934C37.249 4.50961 35.234 2.49609 32.7483 2.49609C30.2626 2.49609 28.2475 4.50961 28.2475 6.9934C28.2475 9.4772 30.2626 11.4907 32.7483 11.4907Z" fill="#3E984C"/>
<path d="M25.8518 11.2215C25.8518 10.8683 25.7822 10.5185 25.6469 10.1922C25.5116 9.86584 25.3134 9.56933 25.0634 9.31956C24.8134 9.06979 24.5167 8.87166 24.1901 8.73649C23.8635 8.60131 23.5135 8.53174 23.16 8.53174H0.0101318V11.6788C0.0101318 12.3922 0.293736 13.0763 0.798554 13.5807C1.30337 14.0852 1.98805 14.3686 2.70197 14.3686H9.70076V43.2675H16.2096V14.3686H25.8518V11.2215Z" fill="#222220"/>
<path d="M35.8493 17.0369C35.8493 16.3236 35.5657 15.6394 35.0609 15.135C34.556 14.6306 33.8714 14.3472 33.1574 14.3472H29.6204V43.2677H35.8493V17.0369Z" fill="#222220"/>
<path d="M68.3829 28.5815C68.4121 26.4649 68.0827 24.3586 67.4084 22.3519C66.812 20.6002 65.863 18.9891 64.6197 17.6179C63.6644 16.5914 62.5342 15.7425 61.2818 15.111C58.4212 13.746 55.2144 13.277 52.0823 13.7657C48.9501 14.2543 46.039 15.6778 43.731 17.8492C42.1159 19.4631 39.424 22.9975 39.424 28.8773C39.3973 31.4173 39.971 33.9277 41.0984 36.2043C41.7783 37.5612 42.6748 38.7986 43.7525 39.8678C45.33 41.4278 48.8455 44.0477 54.6491 44.0477C57.0485 44.0779 59.4256 43.586 61.6156 42.606C63.8596 41.5142 65.798 39.8841 67.2577 37.8612L64.8566 35.9353C64.3504 35.5362 63.7177 35.3318 63.0735 35.3595C62.4293 35.3871 61.8165 35.6449 61.3464 36.0859C60.7716 36.6392 60.1338 37.1231 59.446 37.5277C57.9732 38.3401 56.3141 38.7554 54.632 38.7328C52.9499 38.7101 51.3026 38.2503 49.8522 37.3985C48.4084 36.5202 47.255 35.2368 46.5359 33.7082C46.1116 32.8228 45.8525 31.8675 45.7714 30.8893V30.7978H68.2752C68.3609 30.0623 68.3969 29.3218 68.3829 28.5815ZM45.7714 25.9885V25.8917C45.8825 24.9873 46.1523 24.1096 46.5682 23.2987C47.2938 21.8581 48.4134 20.6527 49.7971 19.8224C51.1808 18.9921 52.7717 18.5709 54.3853 18.6078C56.0381 18.6078 58.3692 18.9951 60.0597 20.8349C60.6994 21.5383 61.1869 22.3661 61.4918 23.2664C61.7862 24.1177 61.9673 25.004 62.0301 25.9024V25.9939L45.7714 25.9885Z" fill="#222220"/>
<path d="M85.2768 18.8877C86.8543 18.8877 88.9862 19.3074 90.1814 21.3139L90.2137 21.3677C91.2904 23.186 91.425 25.4616 91.425 27.2476V43.2679H97.6378V25.4078C97.6378 23.7939 97.3794 19.7915 94.9998 17.091C92.9863 14.7294 90.2891 13.5781 86.7627 13.5781C84.8506 13.5813 82.9712 14.074 81.3037 15.0091C79.9289 15.8026 78.7468 16.8902 77.842 18.1938L77.6858 18.4412V17.0426C77.6858 16.3292 77.4022 15.645 76.8974 15.1406C76.3926 14.6362 75.7079 14.3528 74.994 14.3528H71.7638V43.2679H77.9766V27.8985C77.9766 25.1549 78.6657 22.9439 80.0278 21.3139C80.6539 20.5298 81.4543 19.9023 82.3654 19.4811C83.2766 19.06 84.2734 18.8568 85.2768 18.8877Z" fill="#222220"/>
<path d="M111.086 44.048C113.347 44.048 116.567 43.6822 119.049 41.9338C121.531 40.1855 122.667 37.797 122.667 34.6015C122.707 33.4725 122.469 32.3509 121.975 31.3351C121.48 30.3193 120.743 29.4404 119.829 28.7754C118.451 27.748 116.75 26.8765 112.928 25.9404C111.281 25.6281 109.681 25.1056 108.168 24.3857C107.851 24.2357 107.569 24.0208 107.339 23.7548C107.11 23.4888 106.94 23.1778 106.839 22.8418C106.723 22.4478 106.689 22.0347 106.737 21.6271C106.785 21.2195 106.915 20.8258 107.119 20.4694C107.625 19.6087 109.121 18.6027 111.673 18.6027C113.224 18.5791 114.744 19.0419 116.018 19.9261C116.492 20.2523 117.059 20.418 117.634 20.3986C118.21 20.3792 118.764 20.1759 119.216 19.8185L121.881 17.6667C120.794 16.3908 119.414 15.3976 117.859 14.7725C115.958 13.9676 113.915 13.5524 111.851 13.5513C109.965 13.5355 108.093 13.8825 106.338 14.5734C104.424 15.3066 102.822 16.6789 101.805 18.4575C101.135 19.7064 100.801 21.1078 100.836 22.5244C100.79 23.6489 101.023 24.7672 101.514 25.7799C102.005 26.7926 102.74 27.6683 103.651 28.3289C105.11 29.5017 107.447 30.1849 109.32 30.6475C111.202 31.0249 113.033 31.617 114.779 32.412C115.3 32.6297 115.742 32.9994 116.049 33.4727C116.355 33.9459 116.511 34.5007 116.497 35.0642C116.533 35.7867 116.33 36.501 115.919 37.0969C115.509 37.6928 114.913 38.1373 114.225 38.3618C113.255 38.7197 112.228 38.9019 111.194 38.8998C109.275 38.9135 107.407 38.2868 105.886 37.1191C105.413 36.7624 104.834 36.5743 104.241 36.585C103.649 36.5958 103.077 36.8047 102.618 37.1783L99.8667 39.3893C101.175 40.8917 102.823 42.0609 104.674 42.8C106.71 43.6275 108.888 44.0514 111.086 44.048Z" fill="#222220"/>
</svg>
